<svg width="256" height="256" viewBox="0 0 256 256" fill="none" xmlns="http://www.w3.org/2000/svg">
  <defs>
    <linearGradient id="song-selfie-gradient" x1="40" y1="188" x2="216" y2="44" gradientUnits="userSpaceOnUse">
      <stop stop-color="#FF4F8E"/>
      <stop offset="1" stop-color="#8E4DFF"/>
    </linearGradient>
  </defs>
  <path d="M144 40C144 34.4772 148.477 30 154 30H206C211.523 30 216 34.4772 216 40V160C216 186.51 194.51 208 168 208C141.49 208 120 186.51 120 160C120 133.49 141.49 112 168 112C177.272 112 185.93 114.658 193.25 119.25V76.25L144 85.95V166C144 192.51 122.51 214 96 214C69.4903 214 48 192.51 48 166C48 139.49 69.4903 118 96 118C105.272 118 113.93 120.658 121.25 125.25V89.5C121.25 79.9898 127.951 71.7981 137.242 69.9095L193.25 58.5229V52H154C148.477 52 144 47.5228 144 42V40Z" fill="url(#song-selfie-gradient)"/>
  <path d="M79.3154 167.328C79.3154 160.103 85.1728 154.246 92.398 154.246C97.3314 154.246 101.629 156.979 103.859 161.016C106.089 156.979 110.386 154.246 115.32 154.246C122.545 154.246 128.402 160.103 128.402 167.328C128.402 174.553 123.364 178.844 116.308 183.955L103.859 193L91.4095 183.955C84.3537 178.844 79.3154 174.553 79.3154 167.328Z" fill="white"/>
  <ellipse cx="95.125" cy="170.75" rx="3.875" ry="5.5" fill="#FF4F8E"/>
  <ellipse cx="112.625" cy="170.75" rx="3.875" ry="5.5" fill="#FF4F8E"/>
  <path d="M151.598 147.328C151.598 140.103 157.455 134.246 164.68 134.246C169.614 134.246 173.911 136.979 176.141 141.016C178.371 136.979 182.669 134.246 187.602 134.246C194.827 134.246 200.685 140.103 200.685 147.328C200.685 154.553 195.646 158.844 188.591 163.955L176.141 173L163.692 163.955C156.636 158.844 151.598 154.553 151.598 147.328Z" fill="white"/>
  <ellipse cx="167.407" cy="150.75" rx="3.875" ry="5.5" fill="#FF4F8E"/>
  <ellipse cx="184.907" cy="150.75" rx="3.875" ry="5.5" fill="#FF4F8E"/>
</svg>
